<svg xmlns="http://www.w3.org/2000/svg" width="1200" height="720" viewBox="0 0 1200 720" role="img" aria-labelledby="title desc"><title id="title">EldaSense case study cover</title><desc id="desc">Original fictional brand and digital product interface artwork for EldaSense</desc><defs><linearGradient id="bg" x1="0" y1="0" x2="1" y2="1"><stop offset="0" stop-color="#08111F"/><stop offset="1" stop-color="#6A52C7"/></linearGradient><filter id="shadow" x="-20%" y="-20%" width="140%" height="150%"><feDropShadow dx="0" dy="22" stdDeviation="24" flood-color="#000" flood-opacity=".24"/></filter></defs><rect width="1200" height="720" fill="url(#bg)"/><circle cx="110" cy="640" r="260" fill="#58D1C9" opacity=".11"/><circle cx="1110" cy="40" r="220" fill="#fff" opacity=".05"/><g transform="translate(70 70)"><rect x="0" y="0" width="62.31999999999999" height="62.31999999999999" rx="14.76" fill="#6A52C7"/><path d="M9.347999999999999 31.159999999999997C18.695999999999998 7.478399999999999,43.623999999999995 54.84159999999999,52.971999999999994 31.159999999999997" fill="none" stroke="#58D1C9" stroke-width="7.478399999999999" stroke-linecap="round"/><text x="31.159999999999997" y="38.01519999999999" text-anchor="middle" font-family="Inter,Arial,sans-serif" font-size="16.2032" font-weight="800" fill="#fff">E</text></g><text x="70" y="184" font-family="Inter,Arial,sans-serif" font-size="43" font-weight="760" fill="#fff">EldaSense</text><text x="70" y="220" font-family="Inter,Arial,sans-serif" font-size="14" font-weight="650" letter-spacing="2.7" fill="#fff" opacity=".7">DIGITAL HEALTH</text><text x="70" y="300" font-family="Inter,Arial,sans-serif" font-size="18" font-weight="650" fill="#fff" opacity=".88">FICTIONAL CLIENT CASE STUDY</text><text x="70" y="342" font-family="Inter,Arial,sans-serif" font-size="16" fill="#fff" opacity=".65">Strategy · Design · Engineering</text><g filter="url(#shadow)"><rect x="580" y="96" width="224" height="498" rx="38" fill="#fff"/><rect x="830" y="126" width="224" height="468" rx="38" fill="#F7F8FC"/><rect x="652" y="112" width="80" height="8" rx="4" fill="#D0D5DD"/><rect x="610" y="174" width="164" height="104" rx="10" fill="#6A52C7" opacity="0.16"/><rect x="610" y="300" width="164" height="18" rx="9" fill="#6A52C7" opacity="0.22"/><rect x="610" y="337" width="118" height="12" rx="6" fill="#6A52C7" opacity="0.12"/><rect x="610" y="382" width="76" height="76" rx="10" fill="#6A52C7" opacity="0.18"/><rect x="698" y="382" width="76" height="76" rx="10" fill="#6A52C7" opacity="0.1"/><rect x="860" y="198" width="164" height="18" rx="9" fill="#6A52C7" opacity="0.25"/><rect x="860" y="236" width="120" height="12" rx="6" fill="#6A52C7" opacity="0.12"/><rect x="860" y="290" width="164" height="92" rx="10" fill="#6A52C7" opacity="0.16"/><rect x="860" y="410" width="164" height="48" rx="10" fill="#6A52C7" opacity="0.22"/></g></svg>