<svg xmlns="http://www.w3.org/2000/svg" width="1200" height="720" viewBox="0 0 1200 720" role="img" aria-labelledby="title desc"><title id="title">Finovista Institute case study cover</title><desc id="desc">Original fictional brand and digital product interface artwork for Finovista Institute</desc><defs><linearGradient id="bg" x1="0" y1="0" x2="1" y2="1"><stop offset="0" stop-color="#08111F"/><stop offset="1" stop-color="#386641"/></linearGradient><filter id="shadow" x="-20%" y="-20%" width="140%" height="150%"><feDropShadow dx="0" dy="22" stdDeviation="24" flood-color="#000" flood-opacity=".24"/></filter></defs><rect width="1200" height="720" fill="url(#bg)"/><circle cx="110" cy="640" r="260" fill="#A7C957" opacity=".11"/><circle cx="1110" cy="40" r="220" fill="#fff" opacity=".05"/><g transform="translate(70 70)"><rect x="0" y="0" width="62.31999999999999" height="62.31999999999999" rx="14.76" fill="#386641"/><circle cx="42.3776" cy="19.9424" r="12.463999999999999" fill="#A7C957" opacity=".9"/><text x="31.159999999999997" y="38.01519999999999" text-anchor="middle" font-family="Inter,Arial,sans-serif" font-size="16.2032" font-weight="800" fill="#fff">FI</text></g><text x="70" y="184" font-family="Inter,Arial,sans-serif" font-size="43" font-weight="760" fill="#fff">Finovista Institute</text><text x="70" y="220" font-family="Inter,Arial,sans-serif" font-size="14" font-weight="650" letter-spacing="2.7" fill="#fff" opacity=".7">FINANCIAL EDUCATION</text><text x="70" y="300" font-family="Inter,Arial,sans-serif" font-size="18" font-weight="650" fill="#fff" opacity=".88">FICTIONAL CLIENT CASE STUDY</text><text x="70" y="342" font-family="Inter,Arial,sans-serif" font-size="16" fill="#fff" opacity=".65">Strategy · Design · Engineering</text><g filter="url(#shadow)"><rect x="452" y="88" width="676" height="524" rx="24" fill="#fff"/><rect x="452" y="88" width="176" height="524" rx="24" fill="#F7F8FC"/><rect x="484" y="126" width="96" height="20" rx="10" fill="#386641" opacity="0.85"/><rect x="484" y="190" width="110" height="12" rx="6" fill="#386641" opacity="0.13"/><rect x="484" y="244" width="92" height="12" rx="6" fill="#386641" opacity="0.13"/><rect x="484" y="298" width="110" height="12" rx="6" fill="#386641" opacity="0.13"/><rect x="484" y="352" width="92" height="12" rx="6" fill="#386641" opacity="0.13"/><rect x="484" y="406" width="110" height="12" rx="6" fill="#386641" opacity="0.13"/><text x="676" y="142" font-family="Inter,Arial,sans-serif" font-size="17" font-weight="700" fill="#344054">Overview</text><rect x="676" y="172" width="196" height="18" rx="9" fill="#386641" opacity="0.14"/><rect x="676" y="218" width="404" height="118" rx="10" fill="#386641" opacity="0.12"/><polyline points="700,305 758,270 818,286 886,238 946,258 1032,202" fill="none" stroke="#386641" stroke-width="7" stroke-linecap="round" stroke-linejoin="round"/><rect x="676" y="382" width="118" height="84" rx="12" fill="#F2F4F7"/><rect x="694" y="404" width="66" height="12" rx="6" fill="#386641" opacity="0.2"/><rect x="694" y="434" width="82" height="10" rx="5" fill="#386641" opacity="0.1"/><rect x="814" y="382" width="118" height="84" rx="12" fill="#F2F4F7"/><rect x="832" y="404" width="66" height="12" rx="6" fill="#386641" opacity="0.2"/><rect x="832" y="434" width="82" height="10" rx="5" fill="#386641" opacity="0.1"/><rect x="952" y="382" width="118" height="84" rx="12" fill="#F2F4F7"/><rect x="970" y="404" width="66" height="12" rx="6" fill="#386641" opacity="0.2"/><rect x="970" y="434" width="82" height="10" rx="5" fill="#386641" opacity="0.1"/><rect x="676" y="508" width="404" height="18" rx="9" fill="#386641" opacity="0.12"/><rect x="676" y="544" width="318" height="14" rx="7" fill="#386641" opacity="0.09"/></g></svg>