<svg xmlns="http://www.w3.org/2000/svg" width="1200" height="720" viewBox="0 0 1200 720" role="img" aria-labelledby="title desc"><title id="title">Ujjiva Collective case study cover</title><desc id="desc">Original fictional brand and digital product interface artwork for Ujjiva Collective</desc><defs><linearGradient id="bg" x1="0" y1="0" x2="1" y2="1"><stop offset="0" stop-color="#08111F"/><stop offset="1" stop-color="#A63372"/></linearGradient><filter id="shadow" x="-20%" y="-20%" width="140%" height="150%"><feDropShadow dx="0" dy="22" stdDeviation="24" flood-color="#000" flood-opacity=".24"/></filter></defs><rect width="1200" height="720" fill="url(#bg)"/><circle cx="110" cy="640" r="260" fill="#F6B6D2" opacity=".11"/><circle cx="1110" cy="40" r="220" fill="#fff" opacity=".05"/><g transform="translate(70 70)"><rect x="0" y="0" width="62.31999999999999" height="62.31999999999999" rx="14.76" fill="#A63372"/><path d="M12.463999999999999 44.8704L31.159999999999997 9.9712L49.855999999999995 44.8704Z" fill="#F6B6D2" opacity=".82"/><text x="31.159999999999997" y="38.01519999999999" text-anchor="middle" font-family="Inter,Arial,sans-serif" font-size="16.2032" font-weight="800" fill="#fff">UC</text></g><text x="70" y="184" font-family="Inter,Arial,sans-serif" font-size="43" font-weight="760" fill="#fff">Ujjiva Collective</text><text x="70" y="220" font-family="Inter,Arial,sans-serif" font-size="14" font-weight="650" letter-spacing="2.7" fill="#fff" opacity=".7">SOCIAL IMPACT</text><text x="70" y="300" font-family="Inter,Arial,sans-serif" font-size="18" font-weight="650" fill="#fff" opacity=".88">FICTIONAL CLIENT CASE STUDY</text><text x="70" y="342" font-family="Inter,Arial,sans-serif" font-size="16" fill="#fff" opacity=".65">Strategy · Design · Engineering</text><g filter="url(#shadow)"><rect x="448" y="88" width="680" height="524" rx="24" fill="#fff"/><rect x="448" y="88" width="680" height="56" rx="24" fill="#F7F8FC"/><rect x="486" y="108" width="86" height="16" rx="8" fill="#A63372" opacity="0.85"/><rect x="886" y="110" width="52" height="12" rx="6" fill="#A63372" opacity="0.14"/><rect x="954" y="110" width="52" height="12" rx="6" fill="#A63372" opacity="0.14"/><rect x="1022" y="106" width="72" height="22" rx="10" fill="#A63372" opacity="0.75"/><rect x="486" y="188" width="296" height="34" rx="10" fill="#A63372" opacity="0.9"/><rect x="486" y="242" width="240" height="15" rx="7.5" fill="#A63372" opacity="0.18"/><rect x="486" y="273" width="274" height="13" rx="6.5" fill="#A63372" opacity="0.1"/><rect x="486" y="316" width="132" height="40" rx="10" fill="#A63372" opacity="0.9"/><rect x="832" y="176" width="246" height="206" rx="10" fill="#A63372" opacity="0.18"/><rect x="486" y="426" width="172" height="132" rx="14" fill="#F2F4F7"/><rect x="504" y="448" width="92" height="14" rx="7" fill="#A63372" opacity="0.2"/><rect x="504" y="480" width="132" height="10" rx="5" fill="#A63372" opacity="0.1"/><rect x="504" y="504" width="112" height="10" rx="5" fill="#A63372" opacity="0.1"/><rect x="682" y="426" width="172" height="132" rx="14" fill="#F2F4F7"/><rect x="700" y="448" width="92" height="14" rx="7" fill="#A63372" opacity="0.2"/><rect x="700" y="480" width="132" height="10" rx="5" fill="#A63372" opacity="0.1"/><rect x="700" y="504" width="112" height="10" rx="5" fill="#A63372" opacity="0.1"/><rect x="878" y="426" width="172" height="132" rx="14" fill="#F2F4F7"/><rect x="896" y="448" width="92" height="14" rx="7" fill="#A63372" opacity="0.2"/><rect x="896" y="480" width="132" height="10" rx="5" fill="#A63372" opacity="0.1"/><rect x="896" y="504" width="112" height="10" rx="5" fill="#A63372" opacity="0.1"/></g></svg>