<svg xmlns="http://www.w3.org/2000/svg" width="1200" height="720" viewBox="0 0 1200 720" role="img" aria-labelledby="title desc"><title id="title">Vectoryn case study cover</title><desc id="desc">Original fictional brand and digital product interface artwork for Vectoryn</desc><defs><linearGradient id="bg" x1="0" y1="0" x2="1" y2="1"><stop offset="0" stop-color="#08111F"/><stop offset="1" stop-color="#273043"/></linearGradient><filter id="shadow" x="-20%" y="-20%" width="140%" height="150%"><feDropShadow dx="0" dy="22" stdDeviation="24" flood-color="#000" flood-opacity=".24"/></filter></defs><rect width="1200" height="720" fill="url(#bg)"/><circle cx="110" cy="640" r="260" fill="#F6AE2D" opacity=".11"/><circle cx="1110" cy="40" r="220" fill="#fff" opacity=".05"/><g transform="translate(70 70)"><rect x="0" y="0" width="62.31999999999999" height="62.31999999999999" rx="14.76" fill="#273043"/><path d="M12.463999999999999 44.8704L31.159999999999997 9.9712L49.855999999999995 44.8704Z" fill="#F6AE2D" opacity=".82"/><text x="31.159999999999997" y="38.01519999999999" text-anchor="middle" font-family="Inter,Arial,sans-serif" font-size="16.2032" font-weight="800" fill="#fff">V</text></g><text x="70" y="184" font-family="Inter,Arial,sans-serif" font-size="43" font-weight="760" fill="#fff">Vectoryn</text><text x="70" y="220" font-family="Inter,Arial,sans-serif" font-size="14" font-weight="650" letter-spacing="2.7" fill="#fff" opacity=".7">ADVANCED MANUFACTURING</text><text x="70" y="300" font-family="Inter,Arial,sans-serif" font-size="18" font-weight="650" fill="#fff" opacity=".88">FICTIONAL CLIENT CASE STUDY</text><text x="70" y="342" font-family="Inter,Arial,sans-serif" font-size="16" fill="#fff" opacity=".65">Strategy · Design · Engineering</text><g filter="url(#shadow)"><rect x="478" y="92" width="650" height="520" rx="24" fill="#fff"/><rect x="478" y="92" width="650" height="58" rx="24" fill="#F7F8FC"/><circle cx="510" cy="121" r="7" fill="#F97066"/><circle cx="533" cy="121" r="7" fill="#FDB022"/><circle cx="556" cy="121" r="7" fill="#32D583"/><rect x="512" y="190" width="122" height="166" rx="14" fill="#F2F4F7"/><rect x="528" y="212" width="90" height="82" rx="10" fill="#273043" opacity="0.15"/><rect x="528" y="310" width="70" height="10" rx="5" fill="#273043" opacity="0.22"/><rect x="528" y="332" width="54" height="8" rx="4" fill="#273043" opacity="0.11"/><rect x="658" y="190" width="122" height="166" rx="14" fill="#F2F4F7"/><rect x="674" y="212" width="90" height="82" rx="10" fill="#273043" opacity="0.15"/><rect x="674" y="310" width="70" height="10" rx="5" fill="#273043" opacity="0.22"/><rect x="674" y="332" width="54" height="8" rx="4" fill="#273043" opacity="0.11"/><rect x="804" y="190" width="122" height="166" rx="14" fill="#F2F4F7"/><rect x="820" y="212" width="90" height="82" rx="10" fill="#273043" opacity="0.15"/><rect x="820" y="310" width="70" height="10" rx="5" fill="#273043" opacity="0.22"/><rect x="820" y="332" width="54" height="8" rx="4" fill="#273043" opacity="0.11"/><rect x="950" y="190" width="122" height="166" rx="14" fill="#F2F4F7"/><rect x="966" y="212" width="90" height="82" rx="10" fill="#273043" opacity="0.15"/><rect x="966" y="310" width="70" height="10" rx="5" fill="#273043" opacity="0.22"/><rect x="966" y="332" width="54" height="8" rx="4" fill="#273043" opacity="0.11"/><rect x="512" y="398" width="570" height="28" rx="10" fill="#273043" opacity="0.14"/><rect x="512" y="452" width="360" height="14" rx="7" fill="#273043" opacity="0.2"/><rect x="512" y="482" width="480" height="12" rx="6" fill="#273043" opacity="0.1"/><rect x="512" y="540" width="142" height="38" rx="10" fill="#273043" opacity="0.9"/></g></svg>