<svg fill="none" height="550" viewBox="0 0 651 550" width="651" xmlns="http://www.w3.org/2000/svg"><g fill="#ffffff"><g opacity=".1"><path d="M324 266H422.228L465.993 193.259 420.099 121.22 324 266Z"/><path d="M324 119H422.179L471 192.907 422.179 266 324 119Z"/></g><g opacity=".05"><path d="M560 72H608.111L629.548 36.3717 607.069 1.08734 560 72Z"/><path d="M560 0H608.088L632 36.1992 608.088 72 560 0Z"/></g><g opacity=".05"><path d="M210 404H231.383L240.91 388.165 230.919 372.483 210 404Z"/><path d="M210 372H231.372L242 388.089 231.372 404 210 372Z"/></g><g opacity=".05"><path d="M545 410H615.831L647.39 357.547 614.296 305.601 545 410Z"/><path d="M545 304H615.796L651 357.293 615.796 410 545 304Z"/></g><g opacity=".05"><path d="M431 550H452.383L461.91 534.165 451.919 518.483 431 550Z"/><path d="M431 518H452.372L463 534.089 452.372 550 431 518Z"/></g><g opacity=".05"><path d="M0 512H21.3829L30.9101 496.165 20.9194 480.483 0 512Z"/><path d="M0 480H21.3723L32 496.089 21.3723 512 0 480Z"/></g></g></svg>